{"title":"For.Arts.Sake:The.Story.of.Ballets.Russes.TVRIP","uid":5420551,"size":316243614,"categoryP":"video","categoryS":"other","magnet":"?xt=urn:btih:0f19a1fb8ad64d988e4905663008a9a62c2351d2&amp;dn=For.Arts.Sake%3AThe.Story.of.Ballets.Russes.TVRIP&amp;tr=udp%3A%2F%2Ftracker.openbittorrent.com%3A80&amp;tr=udp%3A%2F%2Fopen.demonii.com%3A1337&amp;tr=udp%3A%2F%2Ftracker.coppersurfer.tk%3A6969&amp;tr=udp%3A%2F%2Fexodus.desync.com%3A6969","seeders":0,"leechers":1,"uploader":"spiderpc","files":-1,"time":1268074246,"description":"RO: Documentarul dezvÃ„Æ’luie cÃƒÂ¢teva dintre complexele frÃ„Æ’mÃƒÂ¢ntÃ„Æ’ri ale artiÃ…Å¸tilor fotografi, care imortealizeazÃ„Æ’ ÃƒÂ®n imagini tragediile rÃ„Æ’zboaielor. Martori lucizi, aceÃ…Å¸tia ÃƒÂ®Ã…Å¸i trasformÃ„Æ’ adesea aparatul de fotografiat ÃƒÂ®n armÃ„Æ’ ÃƒÂ®mpotriva uitÃ„Æ’rii.\n &lt;a href=&quot;\nhttp://us.imdb.com/title/tt1566419/&quot; rel=&quot;nofollow&quot; target=&quot;_NEW&quot;&gt;\nhttp://us.imdb.com/title/tt1566419/&lt;/a&gt;\n\n   General\n\n      Language: English\n      Subtitle: Romanian      \n      Format : AVI\n      Format/Info : Audio Video Interleave\n      File size : 302 MiB\n      Duration : 51mn 19s\n      Overall bit rate : 821 Kbps\n\n   Video \n\n      ID : 0\n      Format : MPEG-4 Visual\n      Format profile : AdvancedSimple@L5\n      Format settings, BVOP : Yes\n      Format settings, QPel : No\n      Format settings, GMC : No warppoints\n      Format settings, Matrix : Default (H.263)\n      Codec ID : XVID\n      Codec ID/Hint : XviD\n      Duration : 51mn 19s\n      Bit rate : 681 Kbps\n      Width : 512 pixels\n      Height : 384 pixels\n      Display aspect ratio : 4:3\n      Frame rate : 25.000 fps\n      Resolution : 24 bits\n      Colorimetry : 4:2:0\n      Scan type : Progressive\n      Bits/(Pixel*Frame) : 0.139\n      Stream size : 250 MiB (83%)\n      Writing library : XviD 1.2.1 (UTC 2008-12-04)\n\n   Audio \n\n      ID : 1\n      Format : MPEG Audio\n      Format version : Version 1\n      Format profile : Layer 3\n      Codec ID : 55\n      Codec ID/Hint : MP3\n      Duration : 51mn 19s\n      Bit rate mode : Constant\n      Bit rate : 128 Kbps\n      Channel(s) : 2 channels\n      Sampling rate : 44.1 KHz\n      Resolution : 16 bits\n      Stream size : 47.0 MiB (16%)\n      Alignment : Split accross interleaves\n      Interleave, duration : 26 ms (0.65 video frame)","torrent":{"xt":"urn:btih:0f19a1fb8ad64d988e4905663008a9a62c2351d2","amp;dn":"For.Arts.Sake%3AThe.Story.of.Ballets.Russes.TVRIP","amp;tr":["udp%3A%2F%2Ftracker.openbittorrent.com%3A80","udp%3A%2F%2Fopen.demonii.com%3A1337","udp%3A%2F%2Ftracker.coppersurfer.tk%3A6969","udp%3A%2F%2Fexodus.desync.com%3A6969"],"infoHash":"0f19a1fb8ad64d988e4905663008a9a62c2351d2","infoHashBuffer":{"type":"Buffer","data":[15,25,161,251,138,214,77,152,142,73,5,102,48,8,169,166,44,35,81,210]},"announce":[],"urlList":[]}}